<?xml version="1.0" encoding="UTF-8"?>
<svg version="1.1" xmlns="http://www.w3.org/2000/svg" width="512" height="512">
<path d="M0 0 C1.9184645 1.9184645 1.1229388 4.7790463 1.12908131 7.33210951 C1.12616847 8.25135142 1.12325563 9.17059332 1.12025452 10.11769104 C1.12153615 11.57067554 1.12153615 11.57067554 1.12284368 13.05301327 C1.12450143 16.32515544 1.11897231 19.59724725 1.11352539 22.86938477 C1.11324356 25.20447793 1.11340118 27.53957119 1.1139679 29.87466431 C1.11425602 36.23598016 1.10835694 42.59727734 1.10139394 48.95858884 C1.09579343 54.92639161 1.09477212 60.89419362 1.09374207 66.86199867 C1.09155124 78.68559054 1.08489032 90.50917554 1.07543945 102.33276367 C1.06626613 113.82104457 1.05918491 125.3093236 1.05493164 136.79760742 C1.05466892 137.50526265 1.05440619 138.21291788 1.05413551 138.94201721 C1.05283051 142.49197145 1.05156679 146.0419257 1.05032361 149.59187996 C1.03995003 179.06125775 1.02225676 208.5306288 1 238 C-0.15019119 237.72552536 -1.30038239 237.45105072 -2.48542786 237.16825867 C-4.01866677 236.80438893 -5.55192698 236.44060891 -7.08520508 236.0769043 C-7.84041695 235.89643303 -8.59562881 235.71596176 -9.37372589 235.53002167 C-15.77203171 234.0153811 -22.18815618 232.8119944 -28.6875 231.8125 C-29.76346436 231.64524414 -30.83942871 231.47798828 -31.94799805 231.30566406 C-39.6401814 230.14111504 -47.21411769 229.20120819 -55 229 C-55.70801758 228.97953613 -56.41603516 228.95907227 -57.14550781 228.93798828 C-95.71985666 227.96029741 -142.11434129 233.72454698 -173 259 C-173.66 259 -174.32 259 -175 259 C-175.20547771 229.99714167 -175.36467121 200.99435458 -175.45958797 171.9909134 C-175.47084382 168.56392805 -175.48249277 165.13694414 -175.49438477 161.70996094 C-175.49674556 161.02773326 -175.49910635 160.34550558 -175.50153869 159.64260434 C-175.54066126 148.60754122 -175.61159994 137.57290168 -175.69437516 126.53808953 C-175.77865011 115.2085436 -175.8278788 103.87931091 -175.84679645 92.54943168 C-175.85852238 86.18825435 -175.88604825 79.82803648 -175.95157051 73.4671669 C-176.01277531 67.4767573 -176.03148084 61.48769996 -176.01796913 55.49700737 C-176.02044 53.30160478 -176.03827544 51.10615581 -176.07284927 48.91102409 C-176.35206303 30.26483047 -176.35206303 30.26483047 -170.68223572 23.84957886 C-169.16340304 22.517041 -167.60412505 21.22853273 -166 20 C-164.68039409 18.75750392 -163.36662219 17.50873808 -162.0625 16.25 C-121.72546921 -17.35113827 -46.93002902 -17.44519404 0 0 Z " fill="#46A0FF" transform="translate(441,101)"/>
<path d="M0 0 C2.90189201 2.58383584 5.65630361 5.29812692 8.3671875 8.08203125 C9.16996537 8.77968885 9.16996537 8.77968885 9.98896098 9.49144053 C12.46399819 12.34784415 11.76871464 16.25318109 11.73468018 19.8616333 C11.73958344 21.22401804 11.73958344 21.22401804 11.74458575 22.6139257 C11.75189301 25.67019372 11.73768368 28.7259875 11.72363281 31.78222656 C11.72442333 33.96832867 11.7265195 36.15443065 11.72982788 38.3405304 C11.73497376 44.28904681 11.72140121 50.23739101 11.70430088 56.18587971 C11.68928899 62.40595906 11.69043941 68.62603594 11.68963623 74.84613037 C11.68594007 85.29735138 11.67104909 95.74851093 11.6484375 106.19970703 C11.62520126 116.9474339 11.61101597 127.6951193 11.60742188 138.44287109 C11.60719911 139.10422511 11.60697634 139.76557914 11.60674682 140.44697419 C11.6065275 141.10719286 11.60630817 141.76741154 11.6060822 142.44763684 C11.601805 155.30420334 11.58986664 168.16075255 11.57440853 181.01731014 C11.57031192 184.72318178 11.56738498 188.429053 11.56461334 192.13492584 C11.55971247 197.96251169 11.5494957 203.79006566 11.53517532 209.61763573 C11.53065996 211.75617116 11.52781546 213.89471087 11.52676773 216.03325081 C11.52501614 218.95369723 11.51711763 221.87406454 11.50762939 224.79449463 C11.50849588 225.63973985 11.50936236 226.48498507 11.5102551 227.35584378 C11.48747733 232.03388343 11.1436656 236.46711471 10.3671875 241.08203125 C9.79355469 240.75332031 9.21992188 240.42460937 8.62890625 240.0859375 C-45.77908526 209.62076471 -103.05640872 208.84283041 -162.6328125 222.08203125 C-162.6328125 143.87203125 -162.6328125 65.66203125 -162.6328125 -14.91796875 C-154.74675767 -18.29770653 -154.74675767 -18.29770653 -150.8125 -19.234375 C-149.95390381 -19.44030273 -149.09530762 -19.64623047 -148.21069336 -19.85839844 C-146.87276733 -20.16632324 -146.87276733 -20.16632324 -145.5078125 -20.48046875 C-144.57783447 -20.69735352 -143.64785645 -20.91423828 -142.68969727 -21.13769531 C-99.34141742 -31.06265542 -36.229222 -30.4577529 0 0 Z " fill="#5FB4FF" transform="translate(232.6328125,116.91796875)"/>
<path d="M0 0 C1.93034357 0.15335173 3.86051844 0.30882815 5.7906189 0.46520996 C6.86550253 0.55156456 7.94038616 0.63791916 9.04784203 0.72689056 C12.06952582 1.00643196 14.95938772 1.46526912 17.9140625 2.15625 C19.33138672 2.48302734 19.33138672 2.48302734 20.77734375 2.81640625 C22.18693359 3.15478516 22.18693359 3.15478516 23.625 3.5 C24.60339844 3.72558594 25.58179688 3.95117188 26.58984375 4.18359375 C33.68340097 5.84170049 33.68340097 5.84170049 36 7 C36 85.21 36 163.42 36 244 C25.9400683 242.88222981 25.9400683 242.88222981 21.05078125 241.9140625 C-49.67770001 228.31791888 -127.15085597 231.2549703 -192 265 C-193.99890618 266.00218466 -195.99873808 267.00252782 -198 268 C-198.2001243 264.05370275 -198.34399039 260.10942759 -198.43945312 256.15917969 C-198.49873314 254.16756242 -198.60047384 252.17735331 -198.703125 250.1875 C-198.87141982 241.85690628 -197.86372513 237.13596233 -192.10351562 230.98486328 C-183.154241 222.54038757 -173.16958541 216.95591689 -162 212 C-161.3714209 211.72027344 -160.7428418 211.44054687 -160.09521484 211.15234375 C-137.3844327 201.30446335 -112.27337116 198.57900398 -87.75 198.6875 C-86.46323868 198.69023422 -86.46323868 198.69023422 -85.15048218 198.69302368 C-72.5444435 198.73809401 -60.33209848 199.17123846 -48 202 C-47.17064941 202.18224121 -46.34129883 202.36448242 -45.48681641 202.55224609 C-35.69833085 204.73293048 -26.26774656 207.3599292 -16.9453125 211.08203125 C-12.64102275 212.42355392 -9.37594558 212.62542981 -5.25 210.75 C-2.73815402 208.79634201 -2.07892474 207.96206777 -1 205 C-0.80248471 202.21231856 -0.71466515 199.52408282 -0.7215271 196.73638916 C-0.7128385 195.47557026 -0.7128385 195.47557026 -0.70397437 194.18928027 C-0.68694936 191.36866116 -0.68409571 188.54820543 -0.68115234 185.72753906 C-0.6718559 183.70726621 -0.66168765 181.68699721 -0.65071106 179.66673279 C-0.62336507 174.17748348 -0.608248 168.68825989 -0.59528303 163.1989603 C-0.57967262 157.46405136 -0.55287575 151.72919511 -0.5272522 145.99432373 C-0.48042738 135.13239956 -0.44370118 124.27046551 -0.41057932 113.40849185 C-0.3723841 101.04342647 -0.32296714 88.67841396 -0.27259517 76.31339312 C-0.16922022 50.87563458 -0.07997791 25.43784209 0 0 Z " fill="#2E8CFF" transform="translate(464,153)"/>
<path d="M0 0 C0.00238835 1.05190616 0.00477671 2.10381231 0.00723743 3.18759441 C0.06599808 28.76745641 0.1418596 54.34722396 0.23571491 79.92698193 C0.28070534 92.29709713 0.32011253 104.66718334 0.34643555 117.03735352 C0.36938931 127.81755761 0.40275796 138.59767017 0.44870156 149.37780172 C0.47266911 155.08727687 0.49137475 160.79666119 0.49761391 166.50618553 C0.50364875 171.87828509 0.52359069 177.2501521 0.55427551 182.62216568 C0.56308142 184.59543177 0.56677306 186.56872822 0.56500816 188.54201317 C0.56336063 191.23365732 0.58001012 193.92458818 0.60127258 196.61613464 C0.59642501 197.39921484 0.59157743 198.18229503 0.58658296 198.98910493 C0.64548098 203.49870215 1.2172004 206.40842718 4 210 C7.64152351 212.51062995 10.434801 212.04956198 14.64013672 211.46289062 C18.26239731 210.75237893 21.61271153 209.5410004 25.0625 208.25 C32.45601533 205.63449329 39.88358743 203.76902621 47.5625 202.1875 C49.06018921 201.8776416 49.06018921 201.8776416 50.58813477 201.56152344 C59.36321348 199.81282652 67.94366553 198.84843738 76.890625 198.796875 C77.70935593 198.78990601 78.52808685 198.78293701 79.37162781 198.77575684 C81.99780482 198.75846759 84.62376845 198.75203767 87.25 198.75 C88.14639191 198.74899292 89.04278381 198.74798584 89.96633911 198.74694824 C103.20459834 198.75702133 116.01161797 199.23217786 129 202 C130.09562256 202.2168042 130.09562256 202.2168042 131.21337891 202.43798828 C153.18846222 206.81748513 181.85737365 215.35492791 195 235 C195.45410156 238.41333008 195.45410156 238.41333008 195.390625 242.26953125 C195.38496521 242.95053391 195.37930542 243.63153656 195.37347412 244.33317566 C195.35120481 246.49368645 195.30103318 248.65249646 195.25 250.8125 C195.22992247 252.28317905 195.21167389 253.75388429 195.1953125 255.22460938 C195.15137326 258.8169525 195.08241456 262.40831006 195 266 C191.49164699 264.63215332 188.17550125 263.08539886 184.83935547 261.33544922 C122.58389153 228.91556432 43.40698903 229.15025758 -23.8840332 242.47509766 C-27.89799587 243.15127252 -31.95437935 243.55048659 -36 244 C-36 165.79 -36 87.58 -36 7 C-9.19968864 -0.05271352 -9.19968864 -0.05271352 0 0 Z " fill="#5AB0FF" transform="translate(48,153)"/>
</svg>
